<?xml version="1.0" standalone="no"?><!-- Generator: Gravit.io --><svg xmlns="http://www.w3.org/2000/svg" xmlns:xlink="http://www.w3.org/1999/xlink" style="isolation:isolate" viewBox="0 0 367.3 353.112" width="367.3" height="353.112"><defs><clipPath id="_clipPath_SZg5TBjXlWoYljsgTKYqPrxup4PvL3oe"><rect width="367.3" height="353.112"/></clipPath></defs><g clip-path="url(#_clipPath_SZg5TBjXlWoYljsgTKYqPrxup4PvL3oe)"><g><g><g><line x1="183.65" y1="31" x2="183.628" y2="349" vector-effect="non-scaling-stroke" stroke-width="1" stroke="rgb(0,0,0)" stroke-linejoin="miter" stroke-linecap="square" stroke-miterlimit="3"/><line x1="0" y1="31" x2="275.464" y2="190.019" vector-effect="non-scaling-stroke" stroke-width="1" stroke="rgb(0,0,0)" stroke-linejoin="miter" stroke-linecap="square" stroke-miterlimit="3"/><line x1="91.814" y1="189.981" x2="367.3" y2="31" vector-effect="non-scaling-stroke" stroke-width="1" stroke="rgb(0,0,0)" stroke-linejoin="miter" stroke-linecap="square" stroke-miterlimit="3"/></g><polygon points="183.65,349,0,31,367.3,31" fill="rgb(0,0,0)" fill-opacity="0.25" style=":undefined;" vector-effect="non-scaling-stroke" stroke-width="1" stroke="rgb(0,0,0)" stroke-linejoin="miter" stroke-linecap="square" stroke-miterlimit="3"/><polygon points="183.65,349,0,31,367.3,31" fill="none" vector-effect="non-scaling-stroke" stroke-width="1" stroke="rgb(0,0,0)" stroke-linejoin="miter" stroke-linecap="square" stroke-miterlimit="3"/></g><g style="opacity:0.63;"><g opacity="0.63"><path d=" M 335.586 110.209 C 335.586 168.636 288.117 216 229.562 216 C 171.007 216 123.539 168.636 123.539 110.209 C 123.539 51.782 171.007 4.418 229.562 4.418 C 288.117 4.418 335.586 51.782 335.586 110.209 Z " fill="rgb(245,33,0)" vector-effect="non-scaling-stroke" stroke-width="1" stroke="rgb(0,0,0)" stroke-linejoin="miter" stroke-linecap="butt" stroke-miterlimit="4"/></g><g opacity="0.63"><path d=" M 289.664 189.954 C 289.664 248.505 242.2 295.969 183.65 295.969 C 125.1 295.969 77.636 248.505 77.636 189.954 C 77.636 131.405 125.1 83.94 183.65 83.94 C 242.2 83.94 289.664 131.405 289.664 189.954 Z " fill="rgb(255,255,0)" vector-effect="non-scaling-stroke" stroke-width="1" stroke="rgb(0,0,0)" stroke-linejoin="miter" stroke-linecap="butt" stroke-miterlimit="4"/></g><g opacity="0.63"><path d=" M 243.761 110.432 C 243.761 168.982 196.292 216.446 137.738 216.446 C 79.182 216.446 31.714 168.982 31.714 110.432 C 31.714 51.882 79.182 4.418 137.738 4.418 C 196.292 4.418 243.761 51.882 243.761 110.432 Z " fill="rgb(255,255,255)" vector-effect="non-scaling-stroke" stroke-width="1" stroke="rgb(0,0,0)" stroke-linejoin="miter" stroke-linecap="butt" stroke-miterlimit="4"/></g><g opacity="0.63"><path d=" M 289.65 137.028 C 289.65 195.57 242.192 243.028 183.65 243.028 C 125.107 243.028 77.65 195.57 77.65 137.028 C 77.65 78.486 125.107 31.028 183.65 31.028 C 242.192 31.028 289.65 78.486 289.65 137.028 Z " fill="rgb(0,0,0)" vector-effect="non-scaling-stroke" stroke-width="1" stroke="rgb(0,0,0)" stroke-linejoin="miter" stroke-linecap="butt" stroke-miterlimit="4"/></g><g><path d=" M 335.586 110.209 C 335.586 168.636 288.117 216 229.562 216 C 171.007 216 123.539 168.636 123.539 110.209 C 123.539 51.782 171.007 4.418 229.562 4.418 C 288.117 4.418 335.586 51.782 335.586 110.209 Z " fill="none" vector-effect="non-scaling-stroke" stroke-width="1" stroke="rgb(0,0,0)" stroke-linejoin="miter" stroke-linecap="butt" stroke-miterlimit="4"/><path d=" M 289.664 189.954 C 289.664 248.505 242.2 295.969 183.65 295.969 C 125.1 295.969 77.636 248.505 77.636 189.954 C 77.636 131.405 125.1 83.94 183.65 83.94 C 242.2 83.94 289.664 131.405 289.664 189.954 Z " fill="none" vector-effect="non-scaling-stroke" stroke-width="1" stroke="rgb(0,0,0)" stroke-linejoin="miter" stroke-linecap="butt" stroke-miterlimit="4"/><path d=" M 243.761 110.432 C 243.761 168.982 196.292 216.446 137.738 216.446 C 79.182 216.446 31.714 168.982 31.714 110.432 C 31.714 51.882 79.182 4.418 137.738 4.418 C 196.292 4.418 243.761 51.882 243.761 110.432 Z " fill="none" vector-effect="non-scaling-stroke" stroke-width="1" stroke="rgb(0,0,0)" stroke-linejoin="miter" stroke-linecap="butt" stroke-miterlimit="4"/><path d=" M 289.65 137.028 C 289.65 195.57 242.192 243.028 183.65 243.028 C 125.107 243.028 77.65 195.57 77.65 137.028 C 77.65 78.486 125.107 31.028 183.65 31.028 C 242.192 31.028 289.65 78.486 289.65 137.028 Z " fill="none" vector-effect="non-scaling-stroke" stroke-width="1" stroke="rgb(0,0,0)" stroke-linejoin="miter" stroke-linecap="butt" stroke-miterlimit="4"/></g></g><polygon points="183.65,243.028,91.825,83.94,275.475,83.94" fill="rgb(0,0,0)" fill-opacity="0.5" style=":undefined;" vector-effect="non-scaling-stroke" stroke-width="1" stroke="rgb(0,0,0)" stroke-linejoin="miter" stroke-linecap="square" stroke-miterlimit="3"/><polygon points="183.646,190,137.73,110.465,229.563,110.465" fill="rgb(0,0,0)"/><g><path d=" M 243.471 102.423 C 264.34 116.713 279.835 138.276 286.305 163.463 C 274.578 209.218 233.062 243.028 183.65 243.028 C 154.697 243.028 128.455 231.42 109.335 212.595 C 118.373 215.106 127.899 216.446 137.738 216.446 C 196.292 216.446 243.761 168.982 243.761 110.432 C 243.761 107.738 243.661 105.068 243.471 102.423 Z " fill-rule="evenodd" fill="rgb(255,255,0)" fill-opacity="0.42" style=":undefined;" vector-effect="non-scaling-stroke" stroke-width="1" stroke="rgb(0,0,0)" stroke-linejoin="miter" stroke-linecap="butt" stroke-miterlimit="4"/><path d=" M 123.819 102.447 C 125.736 76.076 137.342 52.386 155.111 34.914 C 164.191 32.381 173.762 31.028 183.65 31.028 C 242.192 31.028 289.65 78.486 289.65 137.028 C 289.65 146.157 288.496 155.018 286.304 163.462 C 274.557 117.728 233.049 83.94 183.65 83.94 C 161.447 83.94 140.839 90.766 123.819 102.447 Z " fill-rule="evenodd" fill="rgb(245,33,0)" fill-opacity="0.42" style=":undefined;" vector-effect="non-scaling-stroke" stroke-width="1" stroke="rgb(0,0,0)" stroke-linejoin="miter" stroke-linecap="butt" stroke-miterlimit="4"/><path d=" M 184.09 205.782 C 170.095 212.619 154.363 216.446 137.738 216.446 C 127.901 216.446 118.378 215.107 109.341 212.597 C 89.776 193.379 77.65 166.62 77.65 137.028 C 77.65 88.373 110.43 47.375 155.111 34.914 C 135.615 54.084 123.539 80.739 123.539 110.209 C 123.539 152.394 148.284 188.811 184.09 205.782 Z " fill-rule="evenodd" fill="rgb(255,255,255)" fill-opacity="0.42" style=":undefined;" vector-effect="non-scaling-stroke" stroke-width="1" stroke="rgb(0,0,0)" stroke-linejoin="miter" stroke-linecap="butt" stroke-miterlimit="4"/></g></g></g></svg>