<?xml version="1.0" encoding="UTF-8"?>
<!DOCTYPE svg PUBLIC "-//W3C//DTD SVG 1.1//EN" "http://www.w3.org/Graphics/SVG/1.1/DTD/svg11.dtd">
<svg version="1.1" xmlns="http://www.w3.org/2000/svg" xmlns:xlink="http://www.w3.org/1999/xlink" x="0" y="0" width="570" height="484" viewBox="0, 0, 570, 484">
  <g id="Layer_18" transform="translate(-30, -116.795)">
    <g>
      <path d="M363.921,523.342 L318.532,600.77 L315.5,600.795 L311.406,600.664 L266.249,523.631 C282.398,527.326 298.965,528.701 315.5,528.795 C331.733,528.308 348.029,526.794 363.921,523.342 z" fill="#000000"/>
      <path d="M315,478.742 C337.368,485.818 360.835,488.198 384.191,488.763 L372.758,508.268 C354.152,513.634 334.793,515.528 315.5,515.795 C295.715,515.367 276.019,512.677 256.882,507.653 L245.808,488.761 C269.223,488.58 292.538,485.336 315,478.742 z" fill="#000000"/>
      <path d="M436.87,398.899 L391.9,475.612 L385.5,475.795 C369.469,475.592 353.398,474.409 337.711,470.93 C375.879,454.96 409.914,430.254 436.87,398.899 z" fill="#000000"/>
      <path d="M193.084,398.821 C219.536,430.834 254.136,454.938 292.289,470.93 C276.569,474.147 260.556,475.852 244.5,475.795 L238.098,475.61 L193.084,398.821 z" fill="#000000"/>
      <path d="M315.5,123.795 C375.211,125.16 434.085,146.626 477.826,187.992 C481.145,204.218 483.129,220.707 483,237.295 C481.684,341.431 415.538,434.444 315,465.128 C216.39,434.462 146.761,340.816 147,237.295 C147.205,221.085 148.423,204.837 151.972,188.981 C196.15,147.395 254.742,123.962 315.5,123.795 z" fill="#000000" display="none"/>
      <path d="M135.973,205.735 C135.56,209.805 135.041,213.866 134.733,217.945 C134.048,227.036 134.099,229.502 134,237.295 C134.352,268.053 140.148,298.562 151.145,327.277 L105.826,249.969 C113.915,233.977 124.47,219.414 135.973,205.735 z" fill="#000000"/>
      <path d="M493.838,204.337 C505.878,217.801 516.657,232.574 524.939,248.664 L480.24,324.915 C490.794,296.895 495.54,267.152 496,237.295 C495.861,226.282 495.426,215.252 493.838,204.337 z" fill="#000000"/>
      <path d="M164.968,116.795 C153.29,137.216 145.137,159.425 140.061,182.35 C123.372,198.223 109.761,216.797 97.896,236.441 L89.823,222.669 C100.438,182.448 121.715,146.153 151.075,116.795 L164.968,116.795 z" fill="#000000"/>
      <path d="M479.681,116.795 C509.621,145.248 529.444,181.85 541.079,221.131 L532.399,235.939 C520.901,215.819 506.264,197.78 489.778,181.564 C484.882,158.959 476.72,136.871 465.155,116.795 L479.681,116.795 z" fill="#000000"/>
      <path d="M132.842,116.795 C110.086,142.505 90.502,174.295 80.925,207.491 L60,171.795 L90,116.795 L132.842,116.795 z" fill="#000000"/>
      <path d="M540,116.795 L570,171.795 L549.604,206.589 C538.829,174.057 522.055,141.786 498.226,116.795 L540,116.795 z" fill="#000000"/>
      <path d="M264.272,116.795 C225.166,124.552 188.945,142.222 157.681,166.751 C163.023,149.261 170.608,132.564 179.826,116.795 L264.272,116.795 z" fill="#000000"/>
      <path d="M450.133,116.795 C459.762,132.046 466.686,148.767 472.063,165.927 C441.942,142.256 406.735,124.981 369.246,116.795 L450.133,116.795 z" fill="#000000"/>
      <path d="M30,117.795 L71.793,117.795 L52.189,155.945 L30,117.795 z" fill="#000000"/>
      <path d="M557.207,117.795 L600,117.795 L577.279,156.858 L557.207,117.795 z" fill="#000000"/>
    </g>
  </g>
</svg>
